<?xml version="1.0" encoding="UTF-8"?>
<svg width="378px" height="378px" viewBox="0 0 378 378" version="1.1" xmlns="http://www.w3.org/2000/svg" xmlns:xlink="http://www.w3.org/1999/xlink">
    <!-- Generator: Sketch 51.1 (57501) - http://www.bohemiancoding.com/sketch -->
    <title>Artboard</title>
    <desc>Created with Sketch.</desc>
    <defs>
        <polygon id="path-1" points="0 0.297201502 375 0.297201502 375 209.368503 0 209.368503"></polygon>
        <polygon id="path-3" points="0 375 375 375 375 0 0 0"></polygon>
    </defs>
    <g id="Artboard" stroke="none" stroke-width="1" fill="none" fill-rule="evenodd">
        <g id="payIcon" transform="translate(2.000000, 2.000000)">
            <g id="Group-3" transform="translate(0.000000, 85.000000)">
                <mask id="mask-2" fill="white">
                    <use xlink:href="#path-1"></use>
                </mask>
                <g id="Clip-2"></g>
                <path d="M155.0115,180.661016 C145.2765,180.661016 135.5415,180.61984 125.8065,180.679733 C122.15775,180.705936 119.51775,183.34123 119.529,186.676524 C119.54025,190.015561 122.259,192.643369 125.87025,192.643369 C144.87525,192.639626 163.88025,192.620909 182.889,192.564759 C186.91275,192.553529 189.4665,190.127861 189.459,186.560481 C189.4515,183.015561 186.85275,180.668503 182.82525,180.661016 C173.5515,180.642299 164.2815,180.653529 155.0115,180.661016 Z M164.27775,24.4412299 C163.55025,24.3513904 163.10025,24.2503209 162.65025,24.2503209 C117.5265,24.2428342 72.40275,24.2353476 27.27525,24.2540642 C22.62525,24.2540642 19.27275,26.5524599 17.45025,30.7187701 C16.69275,32.4519251 16.464,34.5332086 16.464,36.461016 C16.40775,74.9048663 16.42275,113.348717 16.4265,151.792567 C16.4265,152.488824 16.4565,153.181337 16.52775,153.87385 C17.17275,160.098984 21.29775,163.965829 27.62025,163.969572 C87.47775,163.999519 147.33525,163.980802 207.19275,163.995775 C212.00775,163.995775 215.4615,161.802193 217.344,157.49738 C218.1015,155.764225 218.304,153.671711 218.30775,151.743904 C218.3715,125.226257 218.35275,98.7086096 218.3415,72.1909626 C218.3415,71.3936364 218.2365,70.5963102 218.184,69.8364171 C212.6115,68.327861 207.0915,67.0177005 201.6915,65.3257219 C196.17525,63.6000535 190.8165,61.3727807 185.31525,59.5984492 C170.99775,54.9754545 161.484,40.316631 164.27775,24.4412299 Z M205.7565,192.789358 L210.0165,192.789358 C228.579,192.789358 247.1415,192.841765 265.70025,192.759412 C271.60275,192.736952 277.584,192.901658 283.39275,192.048182 C303.77025,189.053529 321.294,180.350321 335.3415,165.047647 C350.769,148.247647 358.64025,128.333209 358.389,105.701123 C358.104,79.7749198 348.33525,57.6781283 328.47525,40.5749198 C311.18025,25.6802674 290.994,19.0209091 268.134,20.4134225 C254.829,21.2257219 241.5165,22.2102139 228.20025,22.3337433 C220.86525,22.3973797 213.489,21.0198396 206.18775,19.9305348 C202.9065,19.4401604 199.81275,17.7406952 196.5315,17.1642246 C191.09775,16.2171658 186.38775,17.9690374 183.03525,22.4422995 C179.7465,26.8294652 179.5965,31.4711765 182.1015,36.4310695 C184.254,40.6947059 187.74525,42.8733155 191.99775,44.5540642 C209.61525,51.516631 227.919,55.0316043 246.77025,56.416631 C261.414,57.4947059 268.30275,69.858877 264.894,81.1037968 C263.274,86.4529947 259.7265,89.1070053 254.6865,87.916631 C249.999,86.8086096 247.6365,82.7021925 248.93775,77.4203743 C249.52275,75.0620856 248.7315,73.6246524 246.60525,73.2802674 C242.80275,72.6626203 238.93275,72.4230481 234.7965,72.0000535 L234.7965,76.8439037 C234.79275,102.204866 234.85275,127.558342 234.7665,152.919305 C234.72525,165.91984 226.404,176.618235 214.09275,179.650321 C211.3215,180.335348 208.42275,180.48508 205.7565,180.859412 L205.7565,192.789358 Z M103.68525,180.567433 L99.34275,180.567433 C75.684,180.567433 52.0215,180.612353 28.36275,180.548717 C14.23275,180.50754 3.29775,171.849251 0.53775,158.586684 C0.07275,156.344439 0.02775,153.98615 0.02775,151.684011 C-0.00225,113.015561 -0.00975,74.3471123 0.01275,35.6786631 C0.024,19.3765241 11.69775,7.68614973 28.0815,7.67117647 C75.519,7.62625668 122.95275,7.63748663 170.39025,7.69363636 C173.16525,7.69737968 175.40775,7.01983957 177.77775,5.49256684 C187.209,-0.58657754 197.079,-1.27160428 207.5565,3.12679144 C211.29525,4.69898396 215.65275,5.47385027 219.729,5.46262032 C233.15775,5.42518717 246.62775,5.41770053 260.004,4.36582888 C280.1865,2.78614973 299.499,5.09951872 317.8215,14.0759893 C340.40775,25.1487166 356.61525,42.3118182 366.51525,65.2882888 C385.43025,109.201123 371.979,160.121444 333.59775,188.724118 C315.17775,202.450856 294.28275,209.29738 271.01775,209.211283 C224.049,209.027861 177.0765,209.289893 130.10775,209.368503 C128.484,209.368503 126.86025,209.327326 125.24025,209.248717 C110.98275,208.533743 101.39025,197.030535 103.26525,182.903262 C103.3515,182.248182 103.49775,181.600588 103.68525,180.567433 Z" id="Fill-1" fill="#575757" mask="url(#mask-2)"></path>
            </g>
            <path d="M115.139127,203.982859 C91.1230121,203.982859 67.1068969,203.994381 43.0870292,203.955972 C41.4922091,203.952131 39.8073285,203.833062 38.3138263,203.314534 C35.007858,202.166092 32.8951904,198.78606 33.0040134,195.325369 C33.1165889,191.760972 35.3118119,188.599874 38.6703156,187.593547 C40.1938379,187.136474 41.8637084,187.021246 43.4660335,187.021246 C91.5020164,186.994359 139.534247,186.994359 187.57023,187.013564 C188.947404,187.013564 190.373361,187.059655 191.701752,187.393817 C195.675668,188.388622 198.231133,192.022156 197.983467,196.066671 C197.724543,200.199528 194.478615,203.564196 190.320825,203.944449 C189.28513,204.040473 188.234425,203.982859 187.191225,203.982859 L115.139127,203.982859 Z" id="Fill-4" fill="#575757"></path>
            <mask id="mask-4" fill="white">
                <use xlink:href="#path-3"></use>
            </mask>
            <g id="Clip-7"></g>
            <path d="M49.7377915,157.399393 L65.4364297,157.399393 L65.4364297,141.369658 L49.7377915,141.369658 L49.7377915,157.399393 Z M81.9738131,149.575842 C81.9775244,154.850981 82.0331933,160.129835 81.9589681,165.404974 C81.8921654,170.405211 78.9083107,173.793187 73.9611985,173.8712 C62.961018,174.049514 51.9571262,174.042084 40.9569457,173.852625 C36.2213754,173.774613 33.1261829,170.405211 33.0779365,165.616722 C32.9740212,154.832407 32.9740212,144.044377 33.0779365,133.263776 C33.1224716,128.627598 36.1100375,125.258196 40.7416925,125.165324 C51.96826,124.946145 63.20225,124.938716 74.4251063,125.180183 C79.0233599,125.27677 81.8513415,128.683321 81.944123,133.401227 C82.0517496,138.787812 81.9701019,144.185542 81.9738131,149.575842 Z" id="Fill-6" fill="#575757" mask="url(#mask-4)"></path>
            <path d="M70.2068457,233.989083 C60.964075,233.989083 51.7213042,234.016284 42.4785335,233.981312 C36.8571107,233.957996 33.0653018,230.585049 33.0009055,225.661635 C32.9327211,220.532268 36.7207419,217.031087 42.5239898,217.023315 C61.2443885,216.992228 79.9647873,216.992228 98.681398,217.023315 C104.238425,217.031087 108.018869,220.547812 107.999929,225.517857 C107.977201,230.49956 104.215696,233.95411 98.6359418,233.977426 C89.1583137,234.02017 79.6806857,233.989083 70.2068457,233.989083" id="Fill-8" fill="#575757" mask="url(#mask-4)"></path>
            <path d="M142.490857,233.978182 C138.009226,233.978182 133.527595,234.020866 129.045964,233.966542 C123.581649,233.904457 119.937532,230.412202 120.000811,225.394994 C120.067812,220.482555 123.626317,217.071785 128.89335,217.040743 C137.972003,216.986419 147.050656,216.986419 156.133031,217.040743 C161.39262,217.071785 164.951124,220.505837 164.999514,225.418276 C165.047904,230.326835 161.478232,233.881175 156.281923,233.962661 C151.684901,234.036387 147.087879,233.978182 142.490857,233.978182" id="Fill-9" fill="#575757" mask="url(#mask-4)"></path>
        </g>
    </g>
</svg>